<?xml version="1.0" encoding="UTF-8" standalone="no"?>
<!-- Created with Inkscape (http://www.inkscape.org/) -->

<svg
   xmlns:dc="http://purl.org/dc/elements/1.1/"
   xmlns:cc="http://creativecommons.org/ns#"
   xmlns:rdf="http://www.w3.org/1999/02/22-rdf-syntax-ns#"
   xmlns:svg="http://www.w3.org/2000/svg"
   xmlns="http://www.w3.org/2000/svg"
   xmlns:sodipodi="http://sodipodi.sourceforge.net/DTD/sodipodi-0.dtd"
   xmlns:inkscape="http://www.inkscape.org/namespaces/inkscape"
   version="1.1"
   width="32"
   height="32"
   id="svg2"
   inkscape:version="0.92.2 (5c3e80d, 2017-08-06)"
   sodipodi:docname="Reservoir.svg">
  <sodipodi:namedview
     pagecolor="#ffffff"
     bordercolor="#666666"
     borderopacity="1"
     objecttolerance="10"
     gridtolerance="10"
     guidetolerance="10"
     inkscape:pageopacity="0"
     inkscape:pageshadow="2"
     inkscape:window-width="2560"
     inkscape:window-height="1378"
     id="namedview10"
     showgrid="true"
     inkscape:zoom="32"
     inkscape:cx="12.64624"
     inkscape:cy="13.837898"
     inkscape:window-x="2552"
     inkscape:window-y="-8"
     inkscape:window-maximized="1"
     inkscape:current-layer="layer4"
     inkscape:snap-grids="true"
     inkscape:snap-object-midpoints="true">
    <inkscape:grid
       type="xygrid"
       id="grid2987"
       empspacing="4"
       visible="true"
       enabled="true"
       snapvisiblegridlinesonly="true" />
  </sodipodi:namedview>
  <defs
     id="defs4" />
  <metadata
     id="metadata7">
    <rdf:RDF>
      <cc:Work
         rdf:about="">
        <dc:format>image/svg+xml</dc:format>
        <dc:type
           rdf:resource="http://purl.org/dc/dcmitype/StillImage" />
        <dc:title></dc:title>
      </cc:Work>
    </rdf:RDF>
  </metadata>
  <path
     id="path10"
     style="fill:param(fill) #ffffff;stroke-width:0.03389831"
     d="m 15.894531,7.2519531 c -0.397635,0.00364 -0.797655,0.020633 -1.037109,0.060547 -1.298496,0.2164442 -2.464764,0.7172542 -3.525391,1.5136719 -0.06524,0.04899 -0.157129,0.1420544 -0.232422,0.2050781 0.24968,0.5766467 0.476708,1.165895 0.609375,1.78125 0.0964,0.447142 0.09058,0.587522 0.121094,1.035156 0.02282,0.334799 -0.314524,0.334761 -0.33789,0 -0.02972,-0.425698 -0.02455,-0.556689 -0.117188,-0.980468 -0.121269,-0.554751 -0.321902,-1.0821884 -0.544922,-1.601563 -0.365954,0.3322927 -0.745449,0.7058817 -0.9824218,1 -0.7147596,0.887124 -1.2362857,1.897324 -1.5742187,2.964844 0.2114816,0.135819 0.4199682,0.276823 0.6074219,0.419922 0.3194328,0.243849 0.5841199,0.497351 0.8789062,0.767578 0.2473684,0.22676 0.016906,0.474801 -0.2304687,0.248047 C 9.239536,14.400408 8.9760933,14.149417 8.6621094,13.910156 8.5122563,13.795965 8.3384591,13.681213 8.1660156,13.568359 c -0.108296,0.394565 -0.1808103,0.798534 -0.2363281,1.205079 0.3689857,0.156461 0.9104638,0.428631 1.1132813,0.529296 1.2174182,0.686473 0.6767176,0.366827 1.6289062,0.94336 0.287058,0.173808 0.111238,0.464888 -0.175781,0.291015 -0.9380047,-0.568225 -0.406933,-0.255165 -1.605469,-0.93164 -0.1044287,-0.05188 -0.6441743,-0.314823 -1,-0.476563 -0.077543,0.797033 -0.064238,1.606731 0.072266,2.41211 0.3843287,2.267555 1.5808156,4.218253 3.2441404,5.523437 1.157592,-0.24636 2.143246,-0.416692 3.384766,-0.490234 0.496238,-0.02939 0.993148,-0.01054 1.490234,-0.0059 0.333946,0.0031 0.668136,0.01952 1.001953,0.0293 0.0658,0.0044 0.535029,0.03597 0.75586,0.04492 0.324311,-0.08746 0.64759,-0.180429 0.970703,-0.273437 0.120112,-0.03305 0.239843,-0.07203 0.361328,-0.09961 0.179373,-0.04072 0.362894,-0.05819 0.542969,-0.0957 0.23583,-0.04912 0.242234,-0.05473 0.476562,-0.144531 0.08448,-0.03237 0.167954,-0.06797 0.251953,-0.101563 0.0779,-0.03115 0.144143,-0.03524 0.195313,-0.02148 0.153508,0.04127 0.169218,0.240498 -0.06445,0.333984 -0.08549,0.0342 -0.171836,0.07054 -0.257813,0.103516 -0.245188,0.09401 -0.265464,0.105092 -0.521484,0.160156 -0.187491,0.04032 -0.381335,0.05717 -0.56836,0.09961 -0.110102,0.02498 -0.21747,0.06129 -0.326171,0.0918 -0.154289,0.04446 -0.308592,0.08674 -0.462891,0.13086 0.04071,0.09009 0.04557,0.195259 0.04883,0.285156 -0.02492,0.08109 -0.0392,0.166874 -0.07422,0.244141 -0.192825,0.425339 -0.565452,0.740345 -0.939453,1.001953 -0.15109,0.105685 -0.358511,0.229574 -0.558594,0.349609 0.01785,-0.002 0.04961,-0.0017 0.06641,-0.0039 1.139886,-0.1472 2.267112,-0.573694 3.263672,-1.236328 0.578831,-0.384877 1.088222,-0.834021 1.546875,-1.332031 -0.02329,-0.05871 -0.04347,-0.120958 -0.06641,-0.169922 -0.04021,-0.08586 -0.09137,-0.166676 -0.132812,-0.251953 -0.03427,-0.07053 -0.06048,-0.146728 -0.0957,-0.216797 -0.08809,-0.175288 -0.138254,-0.237067 -0.25,-0.400391 -0.359832,-0.532086 0.06015,0.07963 -0.402344,-0.548828 -0.0899,-0.122164 -0.173945,-0.249346 -0.261719,-0.373047 -0.301742,-0.425248 -0.609095,-0.847022 -0.861328,-1.304687 -0.121481,-0.220422 0.0108,-0.376113 0.152344,-0.316407 0.04718,0.0199 0.09435,0.0632 0.134765,0.136719 0.248395,0.45187 0.55183,0.86953 0.84961,1.289063 0.08822,0.124286 0.173347,0.250286 0.263672,0.373046 0.47286,0.64266 0.0072,-0.03153 0.404297,0.552735 0.116613,0.170433 0.170563,0.239032 0.265625,0.425781 0.04058,0.07971 0.07216,0.163733 0.111328,0.244141 0.03844,0.07891 0.0839,0.152918 0.121094,0.232422 0.0075,0.01602 0.01232,0.03276 0.01953,0.04883 0.458842,-0.545578 0.857732,-1.149407 1.189453,-1.826172 0.425172,-0.867422 0.703486,-1.765767 0.847656,-2.736328 0.0744,-0.500849 0.100259,-1.5862 0.05078,-2.115235 -0.0622,-0.665164 -0.198503,-1.307704 -0.390625,-1.925781 -0.270833,-0.02334 -0.542116,-0.0436 -0.814453,-0.04101 -0.100816,-0.0042 -0.42373,-0.01834 -0.541015,-0.01563 -0.21157,0.0049 -0.277352,0.02323 -0.496094,0.05664 -0.386738,0.05907 -0.312908,0.04871 -0.714844,0.103516 -0.3325,0.04533 -0.375458,-0.292541 -0.04297,-0.337891 0.398188,-0.05431 0.326364,-0.04114 0.708985,-0.09961 0.227251,-0.03473 0.295285,-0.0561 0.521484,-0.0625 0.145483,-0.0041 0.440064,0.01186 0.578125,0.01758 0.2313,-0.0023 0.461543,0.01458 0.691406,0.0332 C 23.189868,11.663813 22.489546,10.540449 21.554688,9.6035156 21.223472,9.2715672 20.869305,8.9783174 20.5,8.7128906 20.378834,8.986123 20.255772,9.2585581 20.125,9.5273438 c -0.134384,0.2762086 -0.269779,0.5514942 -0.421875,0.8183592 -0.283527,0.49747 -0.410786,0.636636 -0.736328,1.0625 -0.203798,0.266604 -0.440516,0.02755 -0.238281,-0.240234 0.299514,-0.396604 0.423615,-0.541067 0.6875,-1.00586 C 19.562528,9.9040545 19.69469,9.6380788 19.824219,9.3710938 19.958607,9.094091 20.08707,8.8148529 20.210938,8.5332031 19.278845,7.921186 18.249491,7.4955382 17.128906,7.3105469 16.924994,7.2768841 16.580627,7.2671468 16.25,7.2597656 c 0.06731,0.2266908 0.133487,0.4536565 0.203125,0.6796875 0.08031,0.2606679 0.181745,0.5166723 0.248047,0.78125 0.217415,0.8675955 0.165352,1.7156379 0.0078,2.5859379 -0.05976,0.330213 -0.391479,0.259934 -0.332031,-0.07031 0.149027,-0.827929 0.20114,-1.6324096 -0.0098,-2.4570311 -0.0638,-0.2498847 -0.160014,-0.489968 -0.236329,-0.7363281 -0.08139,-0.262757 -0.157523,-0.5274331 -0.236328,-0.7910157 z m 0.638672,15.6699219 c -0.0049,0.0062 -0.0037,0.01373 -0.0098,0.01953 0.03133,-0.0055 0.06242,-0.01209 0.09375,-0.01758 -0.02801,-9.98e-4 -0.05598,-0.001 -0.08398,-0.002 z m 1.576172,0 c -0.01292,0.01314 0.0093,0.04779 -0.0078,0.05469 -0.04887,0.01973 -0.105505,0.01207 -0.158203,0.01172 -0.02483,-1.64e-4 -0.04946,-0.0031 -0.07422,-0.0039 -0.321778,0.08628 -0.645449,0.168445 -0.972657,0.234375 -0.153633,0.03096 -0.308727,0.05578 -0.46289,0.08398 -0.539264,0.0974 -1.087924,0.134338 -1.634766,0.158204 -1.067881,0.0466 0.312248,-0.02622 -0.601562,0.02344 -0.03566,0.0034 -0.07177,0.0083 -0.107422,0.01172 -0.297577,0.02804 -0.338468,-0.226529 -0.111328,-0.306641 -0.03642,0.0025 -0.07307,0.0027 -0.109375,0.0059 -0.03529,0.003 -1.009514,0.1207 -1.044922,0.125 -0.17568,0.02187 -0.351128,0.04939 -0.527344,0.06641 -0.52107,0.05033 -0.524127,0.04365 -0.591797,0.04297 0.37847,0.253743 0.781704,0.465143 1.197266,0.652343 0.07648,-0.01646 0.128975,0.01255 0.154297,0.07031 0.619285,0.263227 1.27114,0.457435 1.953125,0.552734 0.278542,0.03894 0.732429,0.04767 1.177734,0.03906 0.38166,-0.217951 0.807068,-0.464915 1.105469,-0.673829 0.323652,-0.226593 0.665658,-0.505277 0.824219,-0.880859 0.02296,-0.05439 0.02806,-0.114749 0.04297,-0.171875 0.05531,0.02707 -0.02508,-0.121839 -0.05078,-0.0957 z" />
  <g
     inkscape:groupmode="layer"
     id="layer3"
     inkscape:label="Layer 3">
    <ellipse
       style="fill:param(fill) #ff0000;fill-opacity:1;stroke:param(outline) #000000;stroke-width:1;stroke-linejoin:bevel;stroke-miterlimit:2;stroke-dasharray:none;stroke-opacity:1"
       id="path4659"
       cx="16"
       cy="24"
       rx="12"
       ry="4" />
  </g>
  <g
     inkscape:groupmode="layer"
     id="layer2"
     inkscape:label="Layer 2"
     style="display:inline">
    <rect
       style="fill:param(fill) #ff0000;fill-opacity:1;stroke:none;stroke-width:1;stroke-miterlimit:2;stroke-dasharray:none;stroke-opacity:1;stroke-linejoin:bevel"
       id="rect4651"
       width="24"
       height="16"
       x="4"
       y="8" />
  </g>
  <g
     inkscape:groupmode="layer"
     id="layer4"
     inkscape:label="Cache">
    <path
       style="fill:none;stroke:param(outline) #000000;stroke-width:1px;stroke-linecap:butt;stroke-linejoin:miter;stroke-opacity:1"
       d="M 4,8 V 24"
       id="path4678"
       inkscape:connector-curvature="0" />
    <path
       style="fill:none;stroke:param(outline) #000000;stroke-width:1px;stroke-linecap:butt;stroke-linejoin:miter;stroke-opacity:1"
       d="M 28,8 V 24"
       id="path4680"
       inkscape:connector-curvature="0" />
  </g>
  <g
     inkscape:groupmode="layer"
     id="layer1"
     inkscape:label="Layer 1">
    <ellipse
       style="fill:param(fill) #ff0000;fill-opacity:1;stroke:param(outline) #000000;stroke-width:1;stroke-miterlimit:2;stroke-dasharray:none;stroke-opacity:1"
       id="path4657"
       cx="16"
       cy="8"
       rx="12"
       ry="4" />
  </g>
</svg>
